<svg xmlns="http://www.w3.org/2000/svg" width="25" height="31" viewBox="0 0 25 31" fill="none"><path d="M12.5 26.1318L19.375 19.2877C20.7346 17.9341 21.6604 16.2096 22.0355 14.3322C22.4105 12.4548 22.2179 10.5088 21.4821 8.74033C20.7462 6.97188 19.5001 5.46036 17.9013 4.39692C16.3025 3.33348 14.4228 2.76587 12.5 2.76587C10.5772 2.76587 8.69752 3.33348 7.09873 4.39692C5.49994 5.46036 4.25382 6.97188 3.51794 8.74033C2.78206 10.5088 2.58947 12.4548 2.96452 14.3322C3.33957 16.2096 4.26543 17.9341 5.625 19.2877L12.5 26.1318ZM12.5 30.0419L3.66112 21.2428C1.91298 19.5025 0.722481 17.2852 0.240178 14.8714C-0.242124 12.4575 0.00542617 9.9555 0.951526 7.6817C1.89763 5.40791 3.49978 3.46447 5.55539 2.09714C7.611 0.72981 10.0277 0 12.5 0C14.9723 0 17.389 0.72981 19.4446 2.09714C21.5002 3.46447 23.1024 5.40791 24.0485 7.6817C24.9946 9.9555 25.2421 12.4575 24.7598 14.8714C24.2775 17.2852 23.087 19.5025 21.3389 21.2428L12.5 30.0419ZM12.5 15.2089C13.2367 15.2089 13.9433 14.9176 14.4642 14.399C14.9851 13.8804 15.2778 13.1771 15.2778 12.4437C15.2778 11.7103 14.9851 11.0069 14.4642 10.4883C13.9433 9.96972 13.2367 9.67837 12.5 9.67837C11.7633 9.67837 11.0568 9.96972 10.5358 10.4883C10.0149 11.0069 9.72222 11.7103 9.72222 12.4437C9.72222 13.1771 10.0149 13.8804 10.5358 14.399C11.0568 14.9176 11.7633 15.2089 12.5 15.2089ZM12.5 17.9742C11.0266 17.9742 9.6135 17.3915 8.57163 16.3544C7.52976 15.3172 6.94445 13.9104 6.94445 12.4437C6.94445 10.9769 7.52976 9.57014 8.57163 8.53296C9.6135 7.49578 11.0266 6.91309 12.5 6.91309C13.9734 6.91309 15.3865 7.49578 16.4284 8.53296C17.4702 9.57014 18.0556 10.9769 18.0556 12.4437C18.0556 13.9104 17.4702 15.3172 16.4284 16.3544C15.3865 17.3915 13.9734 17.9742 12.5 17.9742Z" fill="#1A73E9"/></svg>