<svg xmlns="http://www.w3.org/2000/svg" width="16" height="17" viewBox="0 0 16 17"><path d="M1.5836e-07 2.81504L5.6 0.415039L10.4 2.81504L15.4424 0.654239C15.5033 0.628146 15.5697 0.617574 15.6356 0.623473C15.7016 0.629372 15.7651 0.651556 15.8203 0.688035C15.8756 0.724514 15.921 0.774146 15.9523 0.832477C15.9837 0.890808 16.0001 0.956013 16 1.02224V14.015L10.4 16.415L5.6 14.015L0.5576 16.1758C0.496731 16.2019 0.430336 16.2125 0.364373 16.2066C0.29841 16.2007 0.234943 16.1785 0.17967 16.142C0.124396 16.1056 0.0790446 16.0559 0.0476856 15.9976C0.0163265 15.9393 -5.8765e-05 15.8741 1.5836e-07 15.8078V2.81504ZM11.2 14.331L14.4 12.9598V2.84144L11.2 4.21264V14.331ZM9.6 14.2262V4.20384L6.4 2.60384V12.6262L9.6 14.2262ZM4.8 12.6174V2.49904L1.6 3.87024V13.9886L4.8 12.6174Z" fill="#008BF9"/></svg>