<svg xmlns="http://www.w3.org/2000/svg" width="17" height="17" viewBox="0 0 17 17" fill="none"><path d="M6.11186 7.29249C6.95376 8.77154 8.17863 9.99641 9.65769 10.8383L10.4508 9.72755C10.5784 9.54894 10.767 9.42328 10.9809 9.37434C11.1949 9.3254 11.4193 9.35658 11.6118 9.46197C12.8808 10.1555 14.2822 10.5725 15.7238 10.6858C15.9488 10.7036 16.1588 10.8056 16.312 10.9714C16.4651 11.1372 16.5502 11.3546 16.5501 11.5803V15.5837C16.5502 15.8059 16.4678 16.0201 16.319 16.185C16.1702 16.35 15.9654 16.4538 15.7444 16.4765C15.2689 16.5258 14.7898 16.55 14.3071 16.55C6.62687 16.55 0.400146 10.3233 0.400146 2.64308C0.400146 2.16037 0.424371 1.68126 0.473719 1.20573C0.496378 0.984742 0.600213 0.780017 0.765127 0.631179C0.930042 0.482342 1.14431 0.399977 1.36645 0.400024H5.36986C5.59557 0.399996 5.81299 0.485038 5.97879 0.638193C6.14458 0.791348 6.24656 1.00136 6.26439 1.22637C6.37764 2.66802 6.79472 4.06938 7.4882 5.33834C7.59359 5.53085 7.62477 5.75531 7.57583 5.96926C7.52689 6.1832 7.40123 6.37179 7.22262 6.49934L6.11186 7.29249ZM3.84907 6.70301L5.55379 5.48548C5.06999 4.4412 4.73853 3.3329 4.56954 2.19447H2.20356C2.19818 2.34341 2.19549 2.49324 2.19549 2.64308C2.19459 9.33277 7.6174 14.7556 14.3071 14.7556C14.4569 14.7556 14.6068 14.7529 14.7557 14.7466V12.3806C13.6173 12.2116 12.509 11.8802 11.4647 11.3964L10.2472 13.1011C9.75697 12.9106 9.28086 12.6858 8.82237 12.4282L8.77033 12.3986C7.0105 11.397 5.55315 9.93967 4.55159 8.17984L4.52199 8.1278C4.2644 7.66931 4.03953 7.1932 3.84907 6.70301Z" fill="#1A73E9"/></svg>