<svg xmlns="http://www.w3.org/2000/svg" width="100" height="100" viewBox="0 0 100 100" fill="none"><path d="M50 0L51.0195 29.2475C51.249 35.8412 59.1285 39.105 63.9535 34.605L85.3555 14.6447L65.395 36.0466C60.895 40.8715 64.159 48.7509 70.7525 48.9808L100 50L70.7525 51.0195C64.159 51.249 60.895 59.1285 65.395 63.9535L85.3555 85.3555L63.9535 65.395C59.1285 60.895 51.249 64.159 51.0195 70.7525L50 100L48.9808 70.7525C48.7509 64.159 40.8715 60.895 36.0466 65.395L14.6447 85.3555L34.605 63.9535C39.105 59.1285 35.8412 51.249 29.2475 51.0195L0 50L29.2475 48.9808C35.8412 48.7509 39.105 40.8715 34.605 36.0466L14.6447 14.6447L36.0466 34.605C40.8715 39.105 48.7509 35.8412 48.9808 29.2475L50 0Z" fill="#073937" fill-opacity="0.15" style="fill:#073937;fill:color(display-p3 0.0275 0.2235 0.2157);fill-opacity:0.15;"></path></svg>