<svg xmlns="http://www.w3.org/2000/svg" width="25" height="21" viewBox="0 0 25 21" fill="none"><path d="M25 18.9231C24.9979 19.2153 24.8785 19.4949 24.6676 19.7017C24.4567 19.9084 24.1712 20.0256 23.8727 20.0279H3.4C3.10092 20.0276 2.8142 19.9111 2.60283 19.7039C2.39146 19.4968 2.27273 19.2159 2.27273 18.9231V17.8026H22.7273V4.78445L13.6364 12.7956L2.27273 2.78166V1.11266C2.27273 0.817566 2.39245 0.534556 2.60556 0.325891C2.81867 0.117227 3.10771 0 3.40909 0H23.8636C24.165 0 24.4541 0.117227 24.6672 0.325891C24.8803 0.534556 25 0.817566 25 1.11266V18.9231ZM5.03864 2.22533L13.6364 9.80256L22.2341 2.22533H5.03864ZM0 13.352H9.09091V15.5773H0V13.352ZM0 7.78864H5.68182V10.014H0V7.78864Z" fill="#1A73E9"/></svg>